HIERARCHY
ROOT hip
{
  OFFSET 0 0 0
  CHANNELS 6 Xposition Yposition Zposition Zrotation Yrotation Xrotation
  JOINT abdomen
  {
    OFFSET 0 20.6881 -0.73152
    CHANNELS 3 Zrotation Xrotation Yrotation
    JOINT chest
    {
      OFFSET 0 11.7043 -0.48768
      CHANNELS 3 Zrotation Xrotation Yrotation
      JOINT neck
      {
        OFFSET 0 22.1894 -2.19456
        CHANNELS 3 Zrotation Xrotation Yrotation
        JOINT head
        {
          OFFSET -0.24384 7.07133 1.2192
          CHANNELS 3 Zrotation Xrotation Yrotation
          JOINT leftEye
          {
            OFFSET 4.14528 8.04674 8.04672
            CHANNELS 3 Zrotation Xrotation Yrotation
            End Site
            {
              OFFSET 1 0 0
            }
          }
          JOINT rightEye
          {
            OFFSET -3.6576 8.04674 8.04672
            CHANNELS 3 Zrotation Xrotation Yrotation
            End Site
            {
              OFFSET 1 0 0
            }
          }
        }
      }
      JOINT rCollar
      {
        OFFSET -2.68224 19.2634 -4.8768
        CHANNELS 3 Zrotation Xrotation Yrotation
        JOINT rShldr
        {
          OFFSET -8.77824 -1.95073 1.46304
          CHANNELS 3 Zrotation Xrotation Yrotation
          JOINT rForeArm
          {
            OFFSET -28.1742 -1.7115 0.48768
            CHANNELS 3 Zrotation Xrotation Yrotation
            JOINT rHand
            {
              OFFSET -22.5879 0.773209 7.07136
              CHANNELS 3 Zrotation Xrotation Yrotation
              JOINT rThumb1
              {
                OFFSET -1.2192 -0.487915 3.41376
                CHANNELS 3 Zrotation Xrotation Yrotation
                JOINT rThumb2
                {
                  OFFSET -3.37035 -0.52449 3.41376
                  CHANNELS 3 Zrotation Xrotation Yrotation
                  End Site
                  {
                    OFFSET -1.78271 -1.18214 1.43049
                  }
                }
              }
              JOINT rIndex1
              {
                OFFSET -7.75947 0.938293 5.60832
                CHANNELS 3 Zrotation Xrotation Yrotation
                JOINT rIndex2
                {
                  OFFSET -2.54057 -0.884171 1.56538
                  CHANNELS 3 Zrotation Xrotation Yrotation
                  End Site
                  {
                    OFFSET -1.62519 -0.234802 1.16502
                  }
                }
              }
              JOINT rMid1
              {
                OFFSET -8.24714 1.18213 3.41376
                CHANNELS 3 Zrotation Xrotation Yrotation
                JOINT rMid2
                {
                  OFFSET -3.10165 -0.590103 1.0647
                  CHANNELS 3 Zrotation Xrotation Yrotation
                  End Site
                  {
                    OFFSET -2.48547 -0.328903 0.83742
                  }
                }
              }
              JOINT rRing1
              {
                OFFSET -8.82822 0.546677 1.51678
                CHANNELS 3 Zrotation Xrotation Yrotation
                JOINT rRing2
                {
                  OFFSET -2.60934 -0.819778 -0.0198488
                  CHANNELS 3 Zrotation Xrotation Yrotation
                  End Site
                  {
                    OFFSET -2.33842 -0.294052 0.168128
                  }
                }
              }
              JOINT rPinky1
              {
                OFFSET -8.27202 -0.0477905 -0.4584
                CHANNELS 3 Zrotation Xrotation Yrotation
                JOINT rPinky2
                {
                  OFFSET -1.82734 -0.647385 -0.700984
                  CHANNELS 3 Zrotation Xrotation Yrotation
                  End Site
                  {
                    OFFSET -1.69225 -0.51767 -0.607171
                  }
                }
              }
            }
          }
        }
      }
      JOINT lCollar
      {
        OFFSET 2.68224 19.2634 -4.8768
        CHANNELS 3 Zrotation Xrotation Yrotation
        JOINT lShldr
        {
          OFFSET 8.77824 -1.95073 1.46304
          CHANNELS 3 Zrotation Xrotation Yrotation
          JOINT lForeArm
          {
            OFFSET 28.1742 -1.7115 0.48768
            CHANNELS 3 Zrotation Xrotation Yrotation
            JOINT lHand
            {
              OFFSET 22.5879 0.773209 7.07136
              CHANNELS 3 Zrotation Xrotation Yrotation
              JOINT lThumb1
              {
                OFFSET 1.2192 -0.487915 3.41376
                CHANNELS 3 Zrotation Xrotation Yrotation
                JOINT lThumb2
                {
                  OFFSET 3.37035 -0.52449 3.41376
                  CHANNELS 3 Zrotation Xrotation Yrotation
                  End Site
                  {
                    OFFSET 1.78271 -1.18214 1.43049
                  }
                }
              }
              JOINT lIndex1
              {
                OFFSET 7.75947 0.938293 5.60832
                CHANNELS 3 Zrotation Xrotation Yrotation
                JOINT lIndex2
                {
                  OFFSET 2.54057 -0.884171 1.56538
                  CHANNELS 3 Zrotation Xrotation Yrotation
                  End Site
                  {
                    OFFSET 1.62519 -0.234802 1.16502
                  }
                }
              }
              JOINT lMid1
              {
                OFFSET 8.24714 1.18213 3.41376
                CHANNELS 3 Zrotation Xrotation Yrotation
                JOINT lMid2
                {
                  OFFSET 3.10165 -0.590103 1.0647
                  CHANNELS 3 Zrotation Xrotation Yrotation
                  End Site
                  {
                    OFFSET 2.48547 -0.328903 0.83742
                  }
                }
              }
              JOINT lRing1
              {
                OFFSET 8.82822 0.546677 1.51678
                CHANNELS 3 Zrotation Xrotation Yrotation
                JOINT lRing2
                {
                  OFFSET 2.60934 -0.819778 -0.0198488
                  CHANNELS 3 Zrotation Xrotation Yrotation
                  End Site
                  {
                    OFFSET 2.33842 -0.294052 0.168128
                  }
                }
              }
              JOINT lPinky1
              {
                OFFSET 8.27202 -0.0477905 -0.4584
                CHANNELS 3 Zrotation Xrotation Yrotation
                JOINT lPinky2
                {
                  OFFSET 1.82734 -0.647385 -0.700984
                  CHANNELS 3 Zrotation Xrotation Yrotation
                  End Site
                  {
                    OFFSET 1.69225 -0.51767 -0.607171
                  }
                }
              }
            }
          }
        }
      }
    }
  }
  JOINT rButtock
  {
    OFFSET -8.77824 4.35084 1.2192
    CHANNELS 3 Zrotation Xrotation Yrotation
    JOINT rThigh
    {
      OFFSET 0 -1.70687 -2.19456
      CHANNELS 3 Zrotation Xrotation Yrotation
      JOINT rShin
      {
        OFFSET 0 -36.8199 0.73152
        CHANNELS 3 Zrotation Xrotation Yrotation
        JOINT rFoot
        {
          OFFSET 0.73152 -45.1104 -5.12064
          CHANNELS 3 Zrotation Xrotation Yrotation
          End Site
          {
            OFFSET -1.1221 -3.69964 12.103
          }
        }
      }
    }
  }
  JOINT lButtock
  {
    OFFSET 8.77824 4.35084 1.2192
    CHANNELS 3 Zrotation Xrotation Yrotation
    JOINT lThigh
    {
      OFFSET 0 -1.70687 -2.19456
      CHANNELS 3 Zrotation Xrotation Yrotation
      JOINT lShin
      {
        OFFSET 0 -36.8199 0.73152
        CHANNELS 3 Zrotation Xrotation Yrotation
        JOINT lFoot
        {
          OFFSET -0.73152 -45.1104 -5.12064
          CHANNELS 3 Zrotation Xrotation Yrotation
          End Site
          {
            OFFSET 1.1221 -3.69964 12.103
          }
        }
      }
    }
  }
}
MOTION
Frames:	4
Frame Time:	0.00833333
-175.023 85.4571 15.728 0.0 0.0 0.0 1.92988 -0.00172181 0.0523825 0.532081 0.00507107 0.0921223 -1.2655e-13 7.95139e-16 -9.1938e-16 -3.80409e-13 3.18055e-15 -2.86064e-15 -0.0 0.0 0.0 -0.0 0.0 0.0 -6.36131e-14 2.43628e-16 -3.47873e-16 -1.33197e-12 4.62174e-15 -1.35174e-14 -2.29728e-11 7.04056e-12 2.8625e-14 -2.62765e-10 -5.96635e-12 -2.4045e-12 -6.19852e-10 2.3361e-12 -5.09207e-12 -1.07046e-09 4.04249e-12 -8.78231e-12 -6.19846e-10 2.33691e-12 -5.10479e-12 7.73091 5.47488 0.417314 -6.19851e-10 2.33592e-12 -5.09207e-12 2.90554 0.965183 0.102902 -6.19844e-10 2.33671e-12 -5.09684e-12 10.2786 0.731801 0.0259123 -6.1986e-10 2.34009e-12 -5.08889e-12 2.22167 -0.733487 -0.20892 -6.37126e-14 2.37222e-16 -5.96354e-16 -1.33531e-12 5.43552e-15 -1.53064e-14 -2.29438e-11 -6.70401e-12 3.18055e-15 -2.62783e-10 7.823e-12 -2.37269e-12 -6.19822e-10 2.42134e-12 -5.10161e-12 -1.0704e-09 4.17925e-12 -8.77992e-12 -6.19827e-10 2.42358e-12 -5.08889e-12 -7.73091 5.47488 -0.417314 -6.19822e-10 2.42179e-12 -5.09525e-12 -2.90554 0.965183 -0.102902 -6.19832e-10 2.4215e-12 -5.09604e-12 -10.2786 0.731801 -0.0259123 -6.1982e-10 2.42398e-12 -5.10161e-12 -2.22167 -0.733487 0.20892 -2.03217e-16 0.0 -3.88251e-19 1.95942 -7.26116 -0.192013 0.00412106 7.58529 0.107067 -0.521227 -0.330671 0.0523214 2.03217e-16 0.0 3.88251e-19 0.976625 -1.92613 0.000870734 0.00898755 -2.0786 0.0740663 0.487931 3.99809 -0.136746
-167.169 85.8596 7.33387 13.899 86.9658 8.9898 1.4732 3.75527 0.725909 0.805433 1.21397 0.347213 1.06309 -1.81666 0.697178 -0.734482 2.19108 1.1412 -0.0 0.0 0.0 -0.0 0.0 0.0 -8.38044e-14 -4.79366e-12 3.97694e-14 21.448 12.4013 3.34213 -4.16573 -1.88212 6.51798 0.0027733 1.16931 0.164212 -8.0781e-11 1.46946e-10 -6.70193e-11 -1.40335e-10 2.54382e-10 -1.17117e-10 -8.0776e-11 1.46948e-10 -6.70303e-11 7.73091 5.47488 0.417314 -8.07849e-11 1.46949e-10 -6.70147e-11 2.90554 0.965183 0.102902 -8.07727e-11 1.4695e-10 -6.70248e-11 10.2786 0.731801 0.0259123 -8.07848e-11 1.46952e-10 -6.70191e-11 2.22167 -0.733487 -0.20892 -8.38923e-14 -4.79367e-12 3.9522e-14 -21.7166 10.4358 -3.97909 3.13311 -1.25971 -5.05722 -0.0100399 2.22633 -0.312041 -7.90448e-10 1.60732e-10 4.68476e-10 -1.36169e-09 2.77675e-10 8.11305e-10 -7.90452e-10 1.60734e-10 4.68486e-10 -7.73091 5.47488 -0.417314 -7.90447e-10 1.60732e-10 4.68481e-10 -2.90554 0.965183 -0.102902 -7.90456e-10 1.60732e-10 4.6848e-10 -10.2786 0.731801 -0.0259123 -7.90446e-10 1.60733e-10 4.68474e-10 -2.22167 -0.733487 0.20892 -2.03217e-16 0.0 -3.88251e-19 -0.0992567 -4.2317 -0.768421 0.00159978 8.9477 0.139568 -0.447542 -4.44582 0.0635477 2.03217e-16 0.0 3.88251e-19 3.15268 0.346523 0.252836 0.00793143 0.98571 -0.00307649 0.742641 0.0204241 2.83617
-167.19 85.8402 7.34576 12.4972 86.9858 7.6863 0.89937 7.73135 1.44404 1.08203 2.49349 0.616568 2.23612 -3.7404 1.43767 -1.61005 4.5002 2.35441 -0.0 0.0 0.0 -0.0 0.0 0.0 -1.06065e-13 -9.99003e-12 8.32659e-14 42.3954 25.372 7.43872 -8.10959 -3.79233 13.4347 -0.0016001 2.41131 0.338865 4.9724e-10 3.057e-10 -1.3045e-10 8.56994e-10 5.29211e-10 -2.28143e-10 4.97244e-10 3.05704e-10 -1.30459e-10 7.73091 5.47488 0.417314 4.97231e-10 3.05707e-10 -1.3044e-10 2.90554 0.965183 0.102902 4.97248e-10 3.05707e-10 -1.30456e-10 10.2786 0.731801 0.0259123 4.97241e-10 3.05708e-10 -1.30453e-10 2.22167 -0.733487 -0.20892 -1.06138e-13 -9.99003e-12 8.30205e-14 -42.9939 21.3351 -8.64745 6.20658 -2.55993 -10.4146 0.00584752 4.59389 -0.645486 -9.77265e-10 3.326e-10 9.78605e-10 -1.68069e-09 5.74597e-10 1.69467e-09 -9.77269e-10 3.32602e-10 9.78612e-10 -7.73091 5.47488 -0.417314 -9.77265e-10 3.32601e-10 9.78608e-10 -2.90554 0.965183 -0.102902 -9.77273e-10 3.32601e-10 9.78606e-10 -10.2786 0.731801 -0.0259123 -9.77265e-10 3.32601e-10 9.78601e-10 -2.22167 -0.733487 0.20892 -2.03217e-16 0.0 -3.88251e-19 -2.20508 -1.02262 -1.37803 -0.00265632 10.3899 0.174318 -0.367865 -8.8 0.0756408 2.03217e-16 0.0 3.88251e-19 5.4363 2.75526 0.517935 0.0158251 4.22499 -0.0847927 1.46027 -4.16107 5.99187
-167.186 85.8424 7.33617 13.0899 86.9982 8.2595 0.290408 11.2627 2.10892 1.31978 3.63144 0.858886 3.32238 -5.44673 2.09997 -2.46659 6.56277 3.44368 -0.0 0.0 0.0 -0.0 0.0 0.0 -1.24187e-13 -1.43815e-11 1.20004e-13 59.1263 36.6329 12.236 -11.2355 -5.35469 19.6325 -0.0118196 3.5078 0.493458 9.97361e-10 4.36167e-10 -1.90874e-10 1.71992e-09 7.5506e-10 -3.33787e-10 9.97363e-10 4.36171e-10 -1.90881e-10 7.73091 5.47488 0.417314 9.97348e-10 4.36176e-10 -1.9086e-10 2.90554 0.965183 0.102902 9.97369e-10 4.36176e-10 -1.90881e-10 10.2786 0.731801 0.0259123 9.97367e-10 4.36176e-10 -1.9088e-10 2.22167 -0.733487 -0.20892 -1.24252e-13 -1.43815e-11 1.19759e-13 -60.2411 30.6532 -13.6807 8.73971 -3.66155 -15.1997 0.0430494 6.67819 -0.941808 -1.1317e-09 4.77352e-10 1.41563e-09 -1.94428e-09 8.24665e-10 2.45148e-09 -1.1317e-09 4.77354e-10 1.41564e-09 -7.73091 5.47488 -0.417314 -1.1317e-09 4.77352e-10 1.41563e-09 -2.90554 0.965183 -0.102902 -1.1317e-09 4.77353e-10 1.41563e-09 -10.2786 0.731801 -0.0259123 -1.1317e-09 4.77352e-10 1.41563e-09 -2.22167 -0.733487 0.20892 -2.03217e-16 0.0 -3.88251e-19 -4.03389 1.82516 -1.91901 -0.00818326 11.6725 0.205601 -0.295131 -12.6761 0.0875627 2.03217e-16 0.0 3.88251e-19 7.44466 4.89141 0.759521 0.0306613 7.1143 -0.158483 2.49315 -7.84125 8.86489
